<svg width="80" height="80" viewBox="0 0 80 80" fill="none" xmlns="http://www.w3.org/2000/svg">
<g clip-path="url(#clip0_52_3)">
<path d="M23.699 79.8892C12.0009 78.9148 4.3505 73.829 1.4967 65.1296C0.340477 61.605 0.00730106 59.2885 0.00900921 54.7857C0.0101042 51.8904 0.0674742 51.0217 0.370554 49.3108C1.01744 45.6592 2.5589 41.1034 3.37412 40.4338C3.86791 40.0282 4.64069 40.0829 5.08415 40.5549C5.54084 41.0411 5.54992 41.7427 5.11067 42.6037C4.93736 42.9434 4.54855 43.931 4.24665 44.7983C1.73898 52.0027 2.1121 60.9933 5.164 66.9023C7.76896 71.946 12.5257 75.2027 19.3151 76.5908C22.0637 77.1527 23.9762 77.3093 28.0749 77.308C32.2609 77.3064 33.6672 77.1794 36.8346 76.516C37.824 76.3087 38.7621 76.1388 38.9193 76.1384C39.353 76.1368 40.1195 76.9858 40.1195 77.4672C40.1195 77.7117 39.9427 78.0586 39.6893 78.3114C39.2208 78.7788 37.605 79.1873 34.3318 79.6656C32.3708 79.9522 26.0509 80.0851 23.699 79.8892ZM45.5933 79.9035C44.5137 79.5709 43.5541 78.7588 42.9918 77.7017C42.7127 77.1772 42.6988 76.3134 42.6591 57.0627C42.6132 34.804 42.5616 35.9863 43.6337 34.7338C43.9382 34.378 44.5215 33.9224 44.93 33.7212L45.6726 33.3555H61.315H76.9574L77.7 33.7212C78.1084 33.9224 78.6868 34.3722 78.9852 34.7209C80.0782 35.9978 80.0168 34.6121 79.9709 56.9838L79.9294 77.1543L79.5912 77.7799C79.1924 78.5175 78.4255 79.2721 77.6613 79.6786C77.1389 79.9565 76.3997 79.9711 61.5496 79.9971C52.9893 80.0119 45.809 79.9699 45.5933 79.9035ZM76.8912 76.9317L77.3484 76.4744V56.6835V36.8926L76.9709 36.4537L76.5934 36.0148H61.315H46.0365L45.659 36.4537L45.2815 36.8926V56.6835V76.4745L45.7387 76.9317L46.196 77.3889H61.315H76.434L76.8912 76.9317ZM49.7325 72.938C49.2058 72.4113 49.2141 71.6258 49.7517 71.1201C50.1325 70.762 50.2772 70.7381 52.3518 70.6897C53.5602 70.6615 54.7142 70.68 54.9164 70.7307C55.8978 70.977 56.2473 72.2251 55.5344 72.938C55.1586 73.3138 55.0972 73.3219 52.6334 73.3219C50.1696 73.3219 50.1083 73.3138 49.7325 72.938ZM59.0741 72.9599C58.3874 72.229 58.7549 70.9769 59.7276 70.7327C59.9344 70.6808 61.1039 70.6615 62.3265 70.6897C64.5414 70.7407 64.5509 70.7425 64.9266 71.1798C65.4196 71.7534 65.4169 72.4409 64.9198 72.938C64.5434 73.3143 64.4854 73.3219 61.975 73.3219C59.5005 73.3219 59.4027 73.3097 59.0741 72.9599ZM68.4637 73.0048C68.0067 72.579 67.8903 72.0302 68.1445 71.5C68.489 70.7815 68.9252 70.6673 71.3261 70.6673C73.727 70.6673 74.1632 70.7815 74.5078 71.5C74.7619 72.0302 74.6455 72.579 74.1886 73.0048C73.8758 73.2962 73.6434 73.3219 71.3261 73.3219C69.0088 73.3219 68.7765 73.2962 68.4637 73.0048ZM49.7325 67.6195C49.087 66.9741 49.2549 65.9664 50.0813 65.5263C50.6074 65.2461 54.7207 65.2831 55.2815 65.5731C56.0412 65.966 56.1673 66.9866 55.5344 67.6195C55.1586 67.9954 55.0972 68.0035 52.6334 68.0035C50.1696 68.0035 50.1083 67.9954 49.7325 67.6195ZM59.1461 67.6793C58.6335 67.276 58.578 66.3539 59.0327 65.7918C59.3207 65.4356 59.4207 65.4207 61.8495 65.3726L64.3677 65.3227L64.8358 65.7907C65.4302 66.3851 65.462 67.0774 64.9198 67.6195C64.5444 67.995 64.4809 68.0035 62.0471 68.0035C59.7661 68.0035 59.5239 67.9764 59.1461 67.6793ZM68.4019 67.528C68.0022 67.1282 67.9424 66.9725 68.0267 66.5509C68.234 65.5145 68.4705 65.4281 71.2531 65.3726L73.7532 65.3227L74.2212 65.7907C74.7994 66.3689 74.8183 66.8876 74.2843 67.5222L73.8793 68.0035H71.3784H68.8775L68.4019 67.528ZM49.7325 62.3011C49.0043 61.5729 49.3427 60.3468 50.341 60.0962C50.5472 60.0445 51.752 60.0251 53.0184 60.0531C55.2197 60.1018 55.3341 60.1203 55.6197 60.4734C56.0457 61.0001 56.007 61.8285 55.5344 62.3011C55.1586 62.677 55.0972 62.6851 52.6334 62.6851C50.1696 62.6851 50.1083 62.6769 49.7325 62.3011ZM59.1179 62.3011C58.8528 62.036 58.734 61.7433 58.734 61.3555C58.734 60.9677 58.8528 60.6749 59.1179 60.4098C59.4914 60.0363 59.5656 60.0259 61.848 60.0259C63.2342 60.0259 64.35 60.0969 64.5753 60.1995C65.2215 60.494 65.5153 61.5363 65.1033 62.0729C64.6999 62.5984 64.2413 62.6851 61.8656 62.6851C59.5645 62.6851 59.4917 62.6749 59.1179 62.3011ZM68.4879 62.3143C67.8839 61.7947 67.8839 60.9162 68.4879 60.3966C68.9014 60.041 69.018 60.0259 71.3469 60.0259H73.7747L74.232 60.4831C74.5076 60.7587 74.6892 61.1052 74.6892 61.3555C74.6892 61.6057 74.5076 61.9522 74.232 62.2278L73.7747 62.6851H71.3469C69.018 62.6851 68.9014 62.6699 68.4879 62.3143ZM50.0524 57.1777C49.2504 56.7177 49.0982 55.7257 49.7325 55.0914C50.1083 54.7156 50.1696 54.7075 52.6334 54.7075C55.0972 54.7075 55.1586 54.7156 55.5344 55.0914C56.1673 55.7244 56.0412 56.7449 55.2815 57.1378C54.7251 57.4255 50.5402 57.4575 50.0524 57.1777ZM59.409 57.2092C58.6293 56.895 58.4687 55.5645 59.1461 55.0316C59.5239 54.7345 59.7661 54.7075 62.0474 54.7075H64.5366L64.9202 55.1214C65.4477 55.6905 65.4211 56.3348 64.8465 56.9094L64.3893 57.3667L62.07 57.3568C60.7944 57.3513 59.597 57.2849 59.409 57.2092ZM68.519 57.0147C68.2991 56.8211 68.0757 56.4368 68.0227 56.1606C67.9422 55.7408 68.0043 55.5806 68.4019 55.183L68.8775 54.7075H71.3261H73.7747L74.232 55.1647C74.5076 55.4403 74.6892 55.7868 74.6892 56.0371C74.6892 56.2873 74.5076 56.6338 74.232 56.9094L73.7747 57.3667H71.3469C69.0518 57.3667 68.8971 57.3474 68.519 57.0147ZM50.7844 50.3792C50.4988 50.2374 50.0764 49.8743 49.8459 49.5723L49.4267 49.0232L49.3857 45.491C49.346 42.0696 49.3558 41.9397 49.6986 41.3449C49.9172 40.9656 50.3159 40.592 50.7418 40.3673L51.4312 40.0036H61.3064H71.1816L71.8789 40.3555C72.3384 40.5875 72.6956 40.9209 72.9262 41.3332C73.2578 41.9259 73.2764 42.1343 73.2788 45.2879C73.2817 49.0442 73.2099 49.3826 72.2544 50.1114L71.6635 50.5622L61.4837 50.5996C52.2961 50.6333 51.2532 50.6118 50.7844 50.3792ZM70.6222 45.322V42.6628H61.315H52.0077V45.322V47.9812H61.315H70.6222V45.322ZM27.3709 71.888C26.8191 71.5602 26.6771 71.2309 26.672 70.2678L26.667 69.3254L25.2983 69.0475C24.4391 68.873 23.3764 68.5024 22.4436 68.0521C19.9879 66.8664 18.1183 64.7367 17.5214 62.445C17.017 60.5085 17.3864 59.4002 18.5362 59.4002C19.4911 59.4002 19.8279 59.8399 20.0029 61.3154C20.1693 62.7175 21.1433 64.1367 22.6398 65.1575C23.4368 65.7012 25.0847 66.3667 26.0022 66.5154L26.667 66.6232V60.6604C26.667 56.0243 26.6235 54.6852 26.4715 54.6417C26.364 54.611 25.67 54.4442 24.9294 54.2711C21.2381 53.4083 18.3296 50.8442 17.5211 47.7401C16.3327 43.1775 19.927 38.6484 25.5721 37.5953L26.5888 37.4056L26.667 36.3442C26.7313 35.472 26.811 35.2297 27.1145 34.9841C27.614 34.5798 28.2804 34.6079 28.8004 35.0552C29.1715 35.3744 29.2396 35.5676 29.2966 36.463C29.3604 37.4651 29.377 37.5008 29.7778 37.5008C30.5408 37.5008 32.5111 38.14 33.7801 38.7993C35.268 39.5723 37.0038 41.2125 37.6783 42.483C38.5114 44.0521 38.8176 46.1293 38.3204 46.8391C38.0286 47.2557 37.3377 47.4201 36.776 47.2066C36.288 47.021 35.8961 46.2299 35.8961 45.4302C35.8961 45.1401 35.6813 44.4729 35.4188 43.9475C34.5955 42.3001 32.8023 40.9432 30.7136 40.3873C29.1716 39.9769 29.317 39.3579 29.3635 46.1341L29.4045 52.1081L30.4212 52.2975C33.7653 52.9204 36.6252 54.9666 37.8982 57.6472C38.9215 59.8019 38.7432 62.5987 37.4533 64.628C36.0353 66.8589 32.9571 68.7606 30.0865 69.1794L29.3608 69.2852L29.2968 70.2901C29.2504 71.0178 29.1485 71.3793 28.927 71.6007C28.5393 71.9884 27.7769 72.1292 27.3709 71.888ZM31.012 66.2063C34.0547 65.2451 35.8851 63.1912 35.8925 60.7298C35.8969 59.2814 35.3386 58.0742 34.1456 56.9524C32.9597 55.8372 30.8827 54.8639 29.6889 54.8639H29.3262V60.7298C29.3262 65.7467 29.359 66.5957 29.5528 66.5957C29.6774 66.5957 30.3341 66.4205 31.012 66.2063ZM26.667 46.0047V40.1175L25.985 40.211C24.2415 40.45 21.9991 41.725 21.0135 43.0378C19.173 45.4894 19.8249 48.5995 22.5632 50.431C23.4603 51.031 25.6515 51.8822 26.3151 51.8885L26.667 51.8918V46.0047ZM7.34156 35.5526C6.89009 35.1011 6.84314 34.4531 7.22173 33.8988C7.6912 33.2113 9.33707 31.1977 10.4487 29.9508L11.5317 28.7358L10.8278 28.0737C9.88001 27.182 9.43085 26.2451 9.33922 24.9687C9.15364 22.3836 10.9721 20.2789 13.6279 20.0051L14.6167 19.9031L13.5096 18.2607C9.17459 11.8291 6.84802 6.19512 7.42049 3.51521C7.66196 2.38483 8.20209 1.63026 9.07078 1.20973C10.2486 0.639548 11.4361 0.941842 13.9322 2.44728C15.3846 3.3233 17.2181 3.89501 18.6201 3.90911C20.0237 3.92322 21.1749 3.42675 22.4281 2.26693C24.7085 0.156294 27.7091 -0.532258 30.4761 0.420158C31.6365 0.819565 32.272 1.2144 33.4583 2.27289C35.1599 3.79119 36.3524 4.15788 38.4165 3.79754C39.672 3.57835 40.3828 3.27834 43.4321 1.68043C44.9583 0.88067 45.7744 0.754999 46.7213 1.17388C48.7731 2.08149 49.0989 4.53034 47.6939 8.48415C46.8223 10.9367 44.2376 15.657 42.0802 18.7357L41.2362 19.9402L42.2321 20.0202C44.0159 20.1634 45.4486 21.1605 46.1866 22.7726C47.2316 25.0551 46.1531 27.869 43.831 28.9189L43.0134 29.2885L28.8594 29.3317L14.7055 29.3748L14.1018 29.9574C13.3749 30.6587 10.866 33.5179 10.0218 34.607C9.68833 35.0371 9.27702 35.5123 9.10777 35.6628C8.65269 36.0677 7.8036 36.0147 7.34156 35.5526ZM42.6793 26.4919C43.7901 26.0277 44.231 24.9387 43.7491 23.8493C43.1787 22.5599 44.2349 22.6405 27.9261 22.6405C12.0146 22.6405 12.9046 22.5845 12.2697 23.6258C11.6332 24.6697 12.1128 26.1218 13.22 26.5032C14.0733 26.7971 41.9744 26.7863 42.6793 26.4919ZM21.3486 16.3765V12.7716L21.7326 12.3876C22.2297 11.8905 22.9171 11.8879 23.4907 12.3809L23.9296 12.7582L23.9793 16.3698L24.029 19.9813H28.0072H31.9855V16.3765V12.7716L32.3694 12.3876C32.9347 11.8223 33.7164 11.863 34.2397 12.485L34.6447 12.9662V16.4738V19.9813L36.3262 19.9754L38.0078 19.9694L38.4648 19.3106C43.6317 11.8609 46.7431 5.43155 45.9229 3.89905C45.7557 3.58653 45.7181 3.5822 45.0911 3.8034C44.73 3.93082 44.1125 4.2417 43.7189 4.49426C41.7234 5.77482 39.1943 6.57291 37.1772 6.55858C35.0613 6.54355 33.4381 5.85214 31.5904 4.17886C30.2807 2.99283 29.5409 2.69577 27.9184 2.70439C26.3124 2.71293 25.5002 3.07021 23.9756 4.43892C22.1135 6.11051 19.8921 6.8263 17.5666 6.50404C16.0415 6.29269 14.2737 5.70908 13.1364 5.04148C12.6202 4.73848 11.7506 4.27045 11.2041 4.0014C10.0506 3.43362 9.93589 3.49684 9.93206 4.70239C9.92479 6.99297 13.0078 13.0244 17.2424 19.0037L17.9348 19.9813H19.6417H21.3486V16.3765Z" fill="#0B49CF"/>
</g>
<defs>
<clipPath id="clip0_52_3">
<rect width="79.982" height="80" fill="white" transform="translate(0.00900269)"/>
</clipPath>
</defs>
</svg>
