<svg width="82" height="82" viewBox="0 0 82 82" fill="none" xmlns="http://www.w3.org/2000/svg">
<mask id="path-1-outside-1_52_13" maskUnits="userSpaceOnUse" x="0.156921" y="0" width="81" height="82" fill="black">
<rect fill="white" x="0.156921" width="81" height="82"/>
<path d="M18.8554 80.8967C15.6288 80.4496 12.3251 79.1529 9.6767 77.2938C8.06493 76.1625 5.69944 73.7415 4.64146 72.1406C3.01701 69.6824 2.10689 67.5294 1.5137 64.7415C1.06672 62.6407 1.03416 58.7726 1.44751 56.8779C1.85215 55.0231 2.54873 52.9598 3.21801 51.6337C4.56604 48.9628 5.01138 48.457 13.6824 39.7497C21.2871 32.1131 22.0537 31.3878 22.5204 31.3878C23.1477 31.3878 23.6088 31.8954 23.6088 32.5859C23.6088 33.0174 22.7115 33.9714 15.49 41.2175C7.17043 49.5654 6.51974 50.2993 5.30645 52.7037C4.67266 53.9596 3.98416 56.0669 3.71248 57.5823C3.45046 59.0438 3.45153 62.4889 3.71442 63.8439C5.14686 71.2268 10.5725 76.7725 17.8951 78.3384C21.5662 79.1234 25.9848 78.5463 29.4415 76.8303C31.9622 75.5789 32.7945 74.8556 40.4178 67.2907C48.0631 59.7041 49.927 57.7432 50.9404 56.2212C54.5201 50.8448 54.9553 44.0478 52.0935 38.2146C50.8914 35.7644 48.75 33.1152 47.6264 32.688C47.0548 32.4707 45.9131 32.5 45.3214 32.7473C44.6312 33.0356 43.8522 33.9616 43.6415 34.7441C43.3493 35.8294 43.6621 36.7108 44.7978 38.0013C46.4847 39.9182 47.3261 41.5858 47.8047 43.9604C48.5128 47.4745 47.4532 51.3053 44.9809 54.1687C44.4378 54.7978 41.9928 57.3025 39.5476 59.7347C35.5508 63.7104 35.0504 64.157 34.5923 64.157C34.2601 64.157 33.9491 64.0233 33.6986 63.7728C33.2753 63.3495 33.2256 63.0578 33.489 62.5422C33.585 62.3541 36.0031 59.8404 38.8625 56.9561C43.7043 52.0722 44.1012 51.63 44.6406 50.5178C46.4469 46.7936 45.8335 42.6971 42.99 39.4938C41.3829 37.6833 40.8943 36.099 41.3678 34.2329C41.6401 33.1597 42.4388 31.8535 43.1396 31.3354C44.3523 30.4389 44.9025 30.2659 46.542 30.2661C47.9387 30.2662 48.1918 30.3113 48.8901 30.6843C50.497 31.5428 52.856 34.4019 54.1844 37.1011C55.5479 39.8717 56.1542 42.2836 56.2831 45.4504C56.4693 50.0237 55.0812 54.5676 52.3658 58.2734C51.1054 59.9935 35.256 75.843 33.5358 77.1034C31.2084 78.8087 28.345 80.0667 25.409 80.6738C23.912 80.9833 20.3543 81.1043 18.8554 80.8967ZM20.1075 72.5817C18.5292 72.4324 17.5356 72.1389 15.9999 71.3683C13.6887 70.2086 11.9966 68.5266 10.7707 66.1703C9.17324 63.0998 9.02369 59.3275 10.3683 56.0185C11.123 54.161 12.0207 53.1057 17.4605 47.6811C23.0765 42.0807 23.1363 42.0343 23.9041 42.6718C24.0856 42.8225 24.2789 43.1778 24.3337 43.4614C24.4315 43.9672 24.3274 44.0838 18.9539 49.4883C13.5887 54.8844 13.4613 55.0271 12.8439 56.33C12.0241 58.0601 11.8013 59.0524 11.8248 60.8696C11.8816 65.2628 14.7517 68.9046 19.0518 70.0396C20.2103 70.3454 22.6557 70.3417 23.8436 70.0323C25.6942 69.5505 26.96 68.7841 28.7926 67.0358C30.1275 65.7626 30.5932 65.4093 30.9373 65.4093C31.5826 65.4093 32.0618 65.9282 32.0632 66.6286C32.0643 67.1573 31.9317 67.3381 30.5876 68.6393C27.3452 71.7782 24.1842 72.9673 20.1075 72.5817ZM55.01 71.5308C54.8623 71.3676 54.3891 69.8826 53.9585 68.2308C53.2164 65.3842 53.1888 65.2073 53.4283 64.8418C53.8866 64.1424 54.8524 64.0448 55.3332 64.6494C55.5518 64.9243 56.952 70.2259 56.952 70.7788C56.952 71.6921 55.6221 72.2071 55.01 71.5308ZM62.3975 64.1904C59.9427 61.7355 59.7682 61.4398 60.3567 60.7309C60.5074 60.5494 60.8648 60.3557 61.1509 60.3004C61.654 60.2031 61.7484 60.2769 64.0078 62.5364C66.5612 65.0898 66.7129 65.3682 65.9602 66.1209C65.2085 66.8726 64.9275 66.7204 62.3975 64.1904ZM67.3619 56.3866C65.2481 55.8304 64.6283 55.6059 64.3485 55.295C63.932 54.8322 63.9054 54.4944 64.2469 54.0068C64.7333 53.3124 65.0271 53.3231 68.1699 54.1493C71.3247 54.9786 71.6668 55.163 71.6668 56.0342C71.6668 56.6471 71.1675 57.1159 70.5319 57.0998C70.2521 57.0927 68.8256 56.7718 67.3619 56.3866ZM33.4019 51.4006C31.1374 50.4696 27.978 46.184 26.7074 42.3196C25.0565 37.2983 25.3784 31.7942 27.5974 27.1023C28.9704 24.199 29.7869 23.2167 36.1256 16.841C41.4615 11.4741 42.0492 10.9302 42.5111 10.9316C43.2037 10.9337 43.646 11.4046 43.646 12.1397C43.646 12.6941 43.3807 12.9867 37.719 18.6753C31.6912 24.7317 31.0246 25.5078 29.8801 27.8014C28.4994 30.5684 28.0893 32.4286 28.0946 35.9014C28.0981 38.2529 28.1452 38.737 28.4989 40.0613C29.2582 42.9043 30.4862 45.3351 32.1632 47.315C33.5713 48.9774 34.0834 49.3316 35.1956 49.4121C36.3421 49.495 36.8941 49.2849 37.6091 48.4935C38.6269 47.367 38.6894 45.8031 37.762 44.6705C37.5492 44.4107 37.0201 43.7754 36.5861 43.2588C35.6837 42.1846 34.7141 40.2828 34.3115 38.7974C33.8892 37.2395 33.9247 34.2357 34.3844 32.6229C34.9033 30.8025 35.8098 29.1901 37.2094 27.5981C37.8874 26.8269 41.6383 23.0167 45.5446 19.1311C52.7554 11.9586 53.6259 11.1973 55.6214 10.3183C57.7095 9.3985 60.929 9.10245 63.261 9.61578C64.7206 9.93708 66.9568 11.0214 68.1408 11.982C69.9865 13.4794 71.5239 15.875 72.1606 18.2457C72.6572 20.0945 72.6203 22.7644 72.0729 24.6027C71.2143 27.4858 70.7448 28.0865 64.4342 34.3751C58.869 39.9209 58.842 39.9416 58.0338 39.2872C57.7759 39.0784 57.6721 38.8309 57.6721 38.4254C57.6721 37.8874 57.9646 37.5621 63.0744 32.4176C68.9401 26.512 69.2487 26.1197 69.8772 23.7695C70.4383 21.6711 70.1398 18.8056 69.1592 16.8777C68.1667 14.9263 66.1863 13.1497 64.0746 12.3165C62.9943 11.8902 62.5739 11.8126 61.0145 11.751C59.4938 11.6909 59.01 11.7335 57.9675 12.0195C55.4524 12.7095 55.5793 12.6033 46.6497 21.4901C41.5257 26.5894 38.2286 29.9913 37.8407 30.579C36.5697 32.5048 36.0237 35.4166 36.505 37.7016C36.8456 39.3187 37.7944 41.1584 38.9656 42.4726C40.2697 43.936 40.7347 44.9656 40.7345 46.3896C40.7343 47.7353 40.5127 48.5298 39.8646 49.5083C38.5124 51.5497 35.7396 52.3616 33.4019 51.4006ZM59.0364 50.5354C58.6164 50.368 58.3608 49.9168 58.3608 49.3427C58.3608 48.9799 59.6905 47.5735 66.5475 40.6835C74.892 32.299 75.4792 31.6374 76.6556 29.2943C79.3629 23.9021 79.0687 17.232 75.8905 11.9507C71.1415 4.05931 61.1062 1.06788 52.7692 5.05846C50.863 5.97088 49.7492 6.7444 48.0281 8.35125C46.5022 9.77581 46.0446 9.95908 45.392 9.4069C44.5434 8.68884 44.8734 7.92376 46.7417 6.2774C50.8238 2.68031 55.1531 1.00703 60.3959 1.00003C64.0951 0.995099 66.6489 1.59264 69.7883 3.19767C78.2558 7.52673 82.5553 17.0764 80.2061 26.337C79.5102 29.0803 78.4859 31.217 76.7093 33.6316C75.9599 34.6501 61.289 49.5393 60.3431 50.2414C59.8647 50.5964 59.4331 50.6936 59.0364 50.5354ZM13.4337 27.816C11.8409 27.3859 10.4144 26.9225 10.2637 26.7863C9.61027 26.1957 10.1443 24.8653 11.0349 24.8653C11.7867 24.8653 16.9437 26.2852 17.2395 26.5737C17.8432 27.1622 17.4964 28.2906 16.6428 28.5155C16.4706 28.5609 15.0265 28.2461 13.4337 27.816ZM17.6269 19.4197C15.6277 17.4205 15.3122 17.038 15.3122 16.6134C15.3122 16.2687 15.4355 16.0247 15.7246 15.7973C16.5167 15.1742 16.7631 15.3073 19.1103 17.6253C20.3091 18.8091 21.357 19.9492 21.4389 20.1587C21.7226 20.8841 21.0553 21.7345 20.2025 21.7345C20.059 21.7345 18.9 20.6928 17.6269 19.4197ZM26.8125 17.6705C26.2705 17.4534 26.1602 17.1959 25.4216 14.4242C24.6179 11.4083 24.5675 10.9138 25.0177 10.4635C25.4109 10.0703 26.2873 10.049 26.6231 10.4244C26.9114 10.7468 28.305 15.8938 28.305 16.6363C28.305 17.4067 27.5169 17.9528 26.8125 17.6705Z"/>
</mask>
<path d="M18.8554 80.8967C15.6288 80.4496 12.3251 79.1529 9.6767 77.2938C8.06493 76.1625 5.69944 73.7415 4.64146 72.1406C3.01701 69.6824 2.10689 67.5294 1.5137 64.7415C1.06672 62.6407 1.03416 58.7726 1.44751 56.8779C1.85215 55.0231 2.54873 52.9598 3.21801 51.6337C4.56604 48.9628 5.01138 48.457 13.6824 39.7497C21.2871 32.1131 22.0537 31.3878 22.5204 31.3878C23.1477 31.3878 23.6088 31.8954 23.6088 32.5859C23.6088 33.0174 22.7115 33.9714 15.49 41.2175C7.17043 49.5654 6.51974 50.2993 5.30645 52.7037C4.67266 53.9596 3.98416 56.0669 3.71248 57.5823C3.45046 59.0438 3.45153 62.4889 3.71442 63.8439C5.14686 71.2268 10.5725 76.7725 17.8951 78.3384C21.5662 79.1234 25.9848 78.5463 29.4415 76.8303C31.9622 75.5789 32.7945 74.8556 40.4178 67.2907C48.0631 59.7041 49.927 57.7432 50.9404 56.2212C54.5201 50.8448 54.9553 44.0478 52.0935 38.2146C50.8914 35.7644 48.75 33.1152 47.6264 32.688C47.0548 32.4707 45.9131 32.5 45.3214 32.7473C44.6312 33.0356 43.8522 33.9616 43.6415 34.7441C43.3493 35.8294 43.6621 36.7108 44.7978 38.0013C46.4847 39.9182 47.3261 41.5858 47.8047 43.9604C48.5128 47.4745 47.4532 51.3053 44.9809 54.1687C44.4378 54.7978 41.9928 57.3025 39.5476 59.7347C35.5508 63.7104 35.0504 64.157 34.5923 64.157C34.2601 64.157 33.9491 64.0233 33.6986 63.7728C33.2753 63.3495 33.2256 63.0578 33.489 62.5422C33.585 62.3541 36.0031 59.8404 38.8625 56.9561C43.7043 52.0722 44.1012 51.63 44.6406 50.5178C46.4469 46.7936 45.8335 42.6971 42.99 39.4938C41.3829 37.6833 40.8943 36.099 41.3678 34.2329C41.6401 33.1597 42.4388 31.8535 43.1396 31.3354C44.3523 30.4389 44.9025 30.2659 46.542 30.2661C47.9387 30.2662 48.1918 30.3113 48.8901 30.6843C50.497 31.5428 52.856 34.4019 54.1844 37.1011C55.5479 39.8717 56.1542 42.2836 56.2831 45.4504C56.4693 50.0237 55.0812 54.5676 52.3658 58.2734C51.1054 59.9935 35.256 75.843 33.5358 77.1034C31.2084 78.8087 28.345 80.0667 25.409 80.6738C23.912 80.9833 20.3543 81.1043 18.8554 80.8967ZM20.1075 72.5817C18.5292 72.4324 17.5356 72.1389 15.9999 71.3683C13.6887 70.2086 11.9966 68.5266 10.7707 66.1703C9.17324 63.0998 9.02369 59.3275 10.3683 56.0185C11.123 54.161 12.0207 53.1057 17.4605 47.6811C23.0765 42.0807 23.1363 42.0343 23.9041 42.6718C24.0856 42.8225 24.2789 43.1778 24.3337 43.4614C24.4315 43.9672 24.3274 44.0838 18.9539 49.4883C13.5887 54.8844 13.4613 55.0271 12.8439 56.33C12.0241 58.0601 11.8013 59.0524 11.8248 60.8696C11.8816 65.2628 14.7517 68.9046 19.0518 70.0396C20.2103 70.3454 22.6557 70.3417 23.8436 70.0323C25.6942 69.5505 26.96 68.7841 28.7926 67.0358C30.1275 65.7626 30.5932 65.4093 30.9373 65.4093C31.5826 65.4093 32.0618 65.9282 32.0632 66.6286C32.0643 67.1573 31.9317 67.3381 30.5876 68.6393C27.3452 71.7782 24.1842 72.9673 20.1075 72.5817ZM55.01 71.5308C54.8623 71.3676 54.3891 69.8826 53.9585 68.2308C53.2164 65.3842 53.1888 65.2073 53.4283 64.8418C53.8866 64.1424 54.8524 64.0448 55.3332 64.6494C55.5518 64.9243 56.952 70.2259 56.952 70.7788C56.952 71.6921 55.6221 72.2071 55.01 71.5308ZM62.3975 64.1904C59.9427 61.7355 59.7682 61.4398 60.3567 60.7309C60.5074 60.5494 60.8648 60.3557 61.1509 60.3004C61.654 60.2031 61.7484 60.2769 64.0078 62.5364C66.5612 65.0898 66.7129 65.3682 65.9602 66.1209C65.2085 66.8726 64.9275 66.7204 62.3975 64.1904ZM67.3619 56.3866C65.2481 55.8304 64.6283 55.6059 64.3485 55.295C63.932 54.8322 63.9054 54.4944 64.2469 54.0068C64.7333 53.3124 65.0271 53.3231 68.1699 54.1493C71.3247 54.9786 71.6668 55.163 71.6668 56.0342C71.6668 56.6471 71.1675 57.1159 70.5319 57.0998C70.2521 57.0927 68.8256 56.7718 67.3619 56.3866ZM33.4019 51.4006C31.1374 50.4696 27.978 46.184 26.7074 42.3196C25.0565 37.2983 25.3784 31.7942 27.5974 27.1023C28.9704 24.199 29.7869 23.2167 36.1256 16.841C41.4615 11.4741 42.0492 10.9302 42.5111 10.9316C43.2037 10.9337 43.646 11.4046 43.646 12.1397C43.646 12.6941 43.3807 12.9867 37.719 18.6753C31.6912 24.7317 31.0246 25.5078 29.8801 27.8014C28.4994 30.5684 28.0893 32.4286 28.0946 35.9014C28.0981 38.2529 28.1452 38.737 28.4989 40.0613C29.2582 42.9043 30.4862 45.3351 32.1632 47.315C33.5713 48.9774 34.0834 49.3316 35.1956 49.4121C36.3421 49.495 36.8941 49.2849 37.6091 48.4935C38.6269 47.367 38.6894 45.8031 37.762 44.6705C37.5492 44.4107 37.0201 43.7754 36.5861 43.2588C35.6837 42.1846 34.7141 40.2828 34.3115 38.7974C33.8892 37.2395 33.9247 34.2357 34.3844 32.6229C34.9033 30.8025 35.8098 29.1901 37.2094 27.5981C37.8874 26.8269 41.6383 23.0167 45.5446 19.1311C52.7554 11.9586 53.6259 11.1973 55.6214 10.3183C57.7095 9.3985 60.929 9.10245 63.261 9.61578C64.7206 9.93708 66.9568 11.0214 68.1408 11.982C69.9865 13.4794 71.5239 15.875 72.1606 18.2457C72.6572 20.0945 72.6203 22.7644 72.0729 24.6027C71.2143 27.4858 70.7448 28.0865 64.4342 34.3751C58.869 39.9209 58.842 39.9416 58.0338 39.2872C57.7759 39.0784 57.6721 38.8309 57.6721 38.4254C57.6721 37.8874 57.9646 37.5621 63.0744 32.4176C68.9401 26.512 69.2487 26.1197 69.8772 23.7695C70.4383 21.6711 70.1398 18.8056 69.1592 16.8777C68.1667 14.9263 66.1863 13.1497 64.0746 12.3165C62.9943 11.8902 62.5739 11.8126 61.0145 11.751C59.4938 11.6909 59.01 11.7335 57.9675 12.0195C55.4524 12.7095 55.5793 12.6033 46.6497 21.4901C41.5257 26.5894 38.2286 29.9913 37.8407 30.579C36.5697 32.5048 36.0237 35.4166 36.505 37.7016C36.8456 39.3187 37.7944 41.1584 38.9656 42.4726C40.2697 43.936 40.7347 44.9656 40.7345 46.3896C40.7343 47.7353 40.5127 48.5298 39.8646 49.5083C38.5124 51.5497 35.7396 52.3616 33.4019 51.4006ZM59.0364 50.5354C58.6164 50.368 58.3608 49.9168 58.3608 49.3427C58.3608 48.9799 59.6905 47.5735 66.5475 40.6835C74.892 32.299 75.4792 31.6374 76.6556 29.2943C79.3629 23.9021 79.0687 17.232 75.8905 11.9507C71.1415 4.05931 61.1062 1.06788 52.7692 5.05846C50.863 5.97088 49.7492 6.7444 48.0281 8.35125C46.5022 9.77581 46.0446 9.95908 45.392 9.4069C44.5434 8.68884 44.8734 7.92376 46.7417 6.2774C50.8238 2.68031 55.1531 1.00703 60.3959 1.00003C64.0951 0.995099 66.6489 1.59264 69.7883 3.19767C78.2558 7.52673 82.5553 17.0764 80.2061 26.337C79.5102 29.0803 78.4859 31.217 76.7093 33.6316C75.9599 34.6501 61.289 49.5393 60.3431 50.2414C59.8647 50.5964 59.4331 50.6936 59.0364 50.5354ZM13.4337 27.816C11.8409 27.3859 10.4144 26.9225 10.2637 26.7863C9.61027 26.1957 10.1443 24.8653 11.0349 24.8653C11.7867 24.8653 16.9437 26.2852 17.2395 26.5737C17.8432 27.1622 17.4964 28.2906 16.6428 28.5155C16.4706 28.5609 15.0265 28.2461 13.4337 27.816ZM17.6269 19.4197C15.6277 17.4205 15.3122 17.038 15.3122 16.6134C15.3122 16.2687 15.4355 16.0247 15.7246 15.7973C16.5167 15.1742 16.7631 15.3073 19.1103 17.6253C20.3091 18.8091 21.357 19.9492 21.4389 20.1587C21.7226 20.8841 21.0553 21.7345 20.2025 21.7345C20.059 21.7345 18.9 20.6928 17.6269 19.4197ZM26.8125 17.6705C26.2705 17.4534 26.1602 17.1959 25.4216 14.4242C24.6179 11.4083 24.5675 10.9138 25.0177 10.4635C25.4109 10.0703 26.2873 10.049 26.6231 10.4244C26.9114 10.7468 28.305 15.8938 28.305 16.6363C28.305 17.4067 27.5169 17.9528 26.8125 17.6705Z" fill="#0B49CF"/>
<path d="M18.8554 80.8967C15.6288 80.4496 12.3251 79.1529 9.6767 77.2938C8.06493 76.1625 5.69944 73.7415 4.64146 72.1406C3.01701 69.6824 2.10689 67.5294 1.5137 64.7415C1.06672 62.6407 1.03416 58.7726 1.44751 56.8779C1.85215 55.0231 2.54873 52.9598 3.21801 51.6337C4.56604 48.9628 5.01138 48.457 13.6824 39.7497C21.2871 32.1131 22.0537 31.3878 22.5204 31.3878C23.1477 31.3878 23.6088 31.8954 23.6088 32.5859C23.6088 33.0174 22.7115 33.9714 15.49 41.2175C7.17043 49.5654 6.51974 50.2993 5.30645 52.7037C4.67266 53.9596 3.98416 56.0669 3.71248 57.5823C3.45046 59.0438 3.45153 62.4889 3.71442 63.8439C5.14686 71.2268 10.5725 76.7725 17.8951 78.3384C21.5662 79.1234 25.9848 78.5463 29.4415 76.8303C31.9622 75.5789 32.7945 74.8556 40.4178 67.2907C48.0631 59.7041 49.927 57.7432 50.9404 56.2212C54.5201 50.8448 54.9553 44.0478 52.0935 38.2146C50.8914 35.7644 48.75 33.1152 47.6264 32.688C47.0548 32.4707 45.9131 32.5 45.3214 32.7473C44.6312 33.0356 43.8522 33.9616 43.6415 34.7441C43.3493 35.8294 43.6621 36.7108 44.7978 38.0013C46.4847 39.9182 47.3261 41.5858 47.8047 43.9604C48.5128 47.4745 47.4532 51.3053 44.9809 54.1687C44.4378 54.7978 41.9928 57.3025 39.5476 59.7347C35.5508 63.7104 35.0504 64.157 34.5923 64.157C34.2601 64.157 33.9491 64.0233 33.6986 63.7728C33.2753 63.3495 33.2256 63.0578 33.489 62.5422C33.585 62.3541 36.0031 59.8404 38.8625 56.9561C43.7043 52.0722 44.1012 51.63 44.6406 50.5178C46.4469 46.7936 45.8335 42.6971 42.99 39.4938C41.3829 37.6833 40.8943 36.099 41.3678 34.2329C41.6401 33.1597 42.4388 31.8535 43.1396 31.3354C44.3523 30.4389 44.9025 30.2659 46.542 30.2661C47.9387 30.2662 48.1918 30.3113 48.8901 30.6843C50.497 31.5428 52.856 34.4019 54.1844 37.1011C55.5479 39.8717 56.1542 42.2836 56.2831 45.4504C56.4693 50.0237 55.0812 54.5676 52.3658 58.2734C51.1054 59.9935 35.256 75.843 33.5358 77.1034C31.2084 78.8087 28.345 80.0667 25.409 80.6738C23.912 80.9833 20.3543 81.1043 18.8554 80.8967ZM20.1075 72.5817C18.5292 72.4324 17.5356 72.1389 15.9999 71.3683C13.6887 70.2086 11.9966 68.5266 10.7707 66.1703C9.17324 63.0998 9.02369 59.3275 10.3683 56.0185C11.123 54.161 12.0207 53.1057 17.4605 47.6811C23.0765 42.0807 23.1363 42.0343 23.9041 42.6718C24.0856 42.8225 24.2789 43.1778 24.3337 43.4614C24.4315 43.9672 24.3274 44.0838 18.9539 49.4883C13.5887 54.8844 13.4613 55.0271 12.8439 56.33C12.0241 58.0601 11.8013 59.0524 11.8248 60.8696C11.8816 65.2628 14.7517 68.9046 19.0518 70.0396C20.2103 70.3454 22.6557 70.3417 23.8436 70.0323C25.6942 69.5505 26.96 68.7841 28.7926 67.0358C30.1275 65.7626 30.5932 65.4093 30.9373 65.4093C31.5826 65.4093 32.0618 65.9282 32.0632 66.6286C32.0643 67.1573 31.9317 67.3381 30.5876 68.6393C27.3452 71.7782 24.1842 72.9673 20.1075 72.5817ZM55.01 71.5308C54.8623 71.3676 54.3891 69.8826 53.9585 68.2308C53.2164 65.3842 53.1888 65.2073 53.4283 64.8418C53.8866 64.1424 54.8524 64.0448 55.3332 64.6494C55.5518 64.9243 56.952 70.2259 56.952 70.7788C56.952 71.6921 55.6221 72.2071 55.01 71.5308ZM62.3975 64.1904C59.9427 61.7355 59.7682 61.4398 60.3567 60.7309C60.5074 60.5494 60.8648 60.3557 61.1509 60.3004C61.654 60.2031 61.7484 60.2769 64.0078 62.5364C66.5612 65.0898 66.7129 65.3682 65.9602 66.1209C65.2085 66.8726 64.9275 66.7204 62.3975 64.1904ZM67.3619 56.3866C65.2481 55.8304 64.6283 55.6059 64.3485 55.295C63.932 54.8322 63.9054 54.4944 64.2469 54.0068C64.7333 53.3124 65.0271 53.3231 68.1699 54.1493C71.3247 54.9786 71.6668 55.163 71.6668 56.0342C71.6668 56.6471 71.1675 57.1159 70.5319 57.0998C70.2521 57.0927 68.8256 56.7718 67.3619 56.3866ZM33.4019 51.4006C31.1374 50.4696 27.978 46.184 26.7074 42.3196C25.0565 37.2983 25.3784 31.7942 27.5974 27.1023C28.9704 24.199 29.7869 23.2167 36.1256 16.841C41.4615 11.4741 42.0492 10.9302 42.5111 10.9316C43.2037 10.9337 43.646 11.4046 43.646 12.1397C43.646 12.6941 43.3807 12.9867 37.719 18.6753C31.6912 24.7317 31.0246 25.5078 29.8801 27.8014C28.4994 30.5684 28.0893 32.4286 28.0946 35.9014C28.0981 38.2529 28.1452 38.737 28.4989 40.0613C29.2582 42.9043 30.4862 45.3351 32.1632 47.315C33.5713 48.9774 34.0834 49.3316 35.1956 49.4121C36.3421 49.495 36.8941 49.2849 37.6091 48.4935C38.6269 47.367 38.6894 45.8031 37.762 44.6705C37.5492 44.4107 37.0201 43.7754 36.5861 43.2588C35.6837 42.1846 34.7141 40.2828 34.3115 38.7974C33.8892 37.2395 33.9247 34.2357 34.3844 32.6229C34.9033 30.8025 35.8098 29.1901 37.2094 27.5981C37.8874 26.8269 41.6383 23.0167 45.5446 19.1311C52.7554 11.9586 53.6259 11.1973 55.6214 10.3183C57.7095 9.3985 60.929 9.10245 63.261 9.61578C64.7206 9.93708 66.9568 11.0214 68.1408 11.982C69.9865 13.4794 71.5239 15.875 72.1606 18.2457C72.6572 20.0945 72.6203 22.7644 72.0729 24.6027C71.2143 27.4858 70.7448 28.0865 64.4342 34.3751C58.869 39.9209 58.842 39.9416 58.0338 39.2872C57.7759 39.0784 57.6721 38.8309 57.6721 38.4254C57.6721 37.8874 57.9646 37.5621 63.0744 32.4176C68.9401 26.512 69.2487 26.1197 69.8772 23.7695C70.4383 21.6711 70.1398 18.8056 69.1592 16.8777C68.1667 14.9263 66.1863 13.1497 64.0746 12.3165C62.9943 11.8902 62.5739 11.8126 61.0145 11.751C59.4938 11.6909 59.01 11.7335 57.9675 12.0195C55.4524 12.7095 55.5793 12.6033 46.6497 21.4901C41.5257 26.5894 38.2286 29.9913 37.8407 30.579C36.5697 32.5048 36.0237 35.4166 36.505 37.7016C36.8456 39.3187 37.7944 41.1584 38.9656 42.4726C40.2697 43.936 40.7347 44.9656 40.7345 46.3896C40.7343 47.7353 40.5127 48.5298 39.8646 49.5083C38.5124 51.5497 35.7396 52.3616 33.4019 51.4006ZM59.0364 50.5354C58.6164 50.368 58.3608 49.9168 58.3608 49.3427C58.3608 48.9799 59.6905 47.5735 66.5475 40.6835C74.892 32.299 75.4792 31.6374 76.6556 29.2943C79.3629 23.9021 79.0687 17.232 75.8905 11.9507C71.1415 4.05931 61.1062 1.06788 52.7692 5.05846C50.863 5.97088 49.7492 6.7444 48.0281 8.35125C46.5022 9.77581 46.0446 9.95908 45.392 9.4069C44.5434 8.68884 44.8734 7.92376 46.7417 6.2774C50.8238 2.68031 55.1531 1.00703 60.3959 1.00003C64.0951 0.995099 66.6489 1.59264 69.7883 3.19767C78.2558 7.52673 82.5553 17.0764 80.2061 26.337C79.5102 29.0803 78.4859 31.217 76.7093 33.6316C75.9599 34.6501 61.289 49.5393 60.3431 50.2414C59.8647 50.5964 59.4331 50.6936 59.0364 50.5354ZM13.4337 27.816C11.8409 27.3859 10.4144 26.9225 10.2637 26.7863C9.61027 26.1957 10.1443 24.8653 11.0349 24.8653C11.7867 24.8653 16.9437 26.2852 17.2395 26.5737C17.8432 27.1622 17.4964 28.2906 16.6428 28.5155C16.4706 28.5609 15.0265 28.2461 13.4337 27.816ZM17.6269 19.4197C15.6277 17.4205 15.3122 17.038 15.3122 16.6134C15.3122 16.2687 15.4355 16.0247 15.7246 15.7973C16.5167 15.1742 16.7631 15.3073 19.1103 17.6253C20.3091 18.8091 21.357 19.9492 21.4389 20.1587C21.7226 20.8841 21.0553 21.7345 20.2025 21.7345C20.059 21.7345 18.9 20.6928 17.6269 19.4197ZM26.8125 17.6705C26.2705 17.4534 26.1602 17.1959 25.4216 14.4242C24.6179 11.4083 24.5675 10.9138 25.0177 10.4635C25.4109 10.0703 26.2873 10.049 26.6231 10.4244C26.9114 10.7468 28.305 15.8938 28.305 16.6363C28.305 17.4067 27.5169 17.9528 26.8125 17.6705Z" stroke="#0B49CF" stroke-width="0.5" mask="url(#path-1-outside-1_52_13)"/>
</svg>
