<svg width="80" height="80" viewBox="0 0 80 80" fill="none" xmlns="http://www.w3.org/2000/svg">
<g clip-path="url(#clip0_52_20)">
<path d="M25.9787 79.8779C14.9077 78.889 5.1599 71.1884 1.54643 60.5768C-1.24717 52.3728 -0.212908 43.3831 4.36971 36.0371C5.41393 34.3632 6.47522 33.0185 7.99139 31.4481C9.06043 30.3409 9.31084 30.1579 9.75677 30.1579C10.4196 30.1579 10.902 30.6266 10.902 31.2706C10.902 31.6626 10.6786 31.991 9.75826 32.9518C5.79613 37.0885 3.5093 41.7125 2.59333 47.4396C2.33546 49.0519 2.33743 53.6681 2.59663 55.1811C3.23904 58.931 4.42693 62.1741 6.21273 65.0534C9.80049 70.838 15.595 75.1649 21.9192 76.7819C28.2149 78.3915 34.2837 77.8273 39.9915 75.1018C43.0729 73.6304 44.9781 72.2745 47.4203 69.8151C49.4393 67.7818 50.8831 65.8056 52.1701 63.3137C52.978 61.7495 53.9943 59.1079 54.284 57.8193L54.3765 57.4079L51.6022 57.4093C46.4454 57.4117 42.737 56.5483 38.3135 54.3154C29.8196 50.0278 24.1985 42.1099 22.7736 32.4258C22.6724 31.7376 22.5906 29.9254 22.592 28.3986C22.5933 26.8718 22.5472 25.6226 22.4895 25.6226C21.995 25.6226 18.866 26.7817 17.175 27.5914C16.0232 28.1429 14.9305 28.5941 14.7466 28.5941C13.7261 28.5941 13.3026 27.2225 14.1236 26.5767C15.2625 25.6809 19.4104 23.979 21.9534 23.3641L23.0738 23.0932L23.3447 21.9729C25.8093 11.7793 33.9353 3.53487 44.0896 0.925594C50.9233 -0.830403 57.858 -0.0787382 64.1768 3.10288C69.8279 5.9483 74.1574 10.3133 76.9733 16.0042C79.8883 21.8954 80.6985 28.134 79.3902 34.6153C77.2442 45.2472 68.6827 54.082 58.0296 56.6578L56.9093 56.9287L56.6384 58.049C55.369 63.2993 52.5132 68.2256 48.5401 72.0189C42.4276 77.8549 34.4481 80.6345 25.9787 79.878V79.8779ZM54.6309 54.6922C54.9022 54.4409 54.9783 54.1296 55.0631 52.9227C55.1197 52.1172 55.1191 50.847 55.0616 50.1L54.9572 48.7418L51.8503 51.8442L48.7433 54.9465L49.6458 55.0464C50.1421 55.1013 51.3927 55.1127 52.4249 55.0717C54.0039 55.009 54.3539 54.9488 54.6309 54.6922ZM50.2118 50.2001L54.5652 45.8446L54.1711 44.3743C53.8232 43.0761 53.351 41.7311 53.2431 41.7311C53.2224 41.7311 50.6078 44.3293 47.4331 47.505L41.6608 53.2788L42.2728 53.5377C42.8512 53.7824 45.362 54.5194 45.701 54.5441C45.7876 54.5504 47.8175 52.5956 50.2118 50.2001ZM60.2566 53.5386C66.4646 51.2914 71.8416 46.5336 74.7756 40.6914C75.702 38.8467 76.7642 36.1009 76.5514 36.1009C76.528 36.1009 72.4626 40.1476 67.5171 45.0936C62.5717 50.0396 58.5745 54.0863 58.6344 54.0863C58.6944 54.0863 59.4244 53.8399 60.2566 53.5386ZM45.7633 45.734L52.2375 39.2585L51.8038 38.5007C51.1256 37.3157 50.2434 35.9474 50.1566 35.9459C50.021 35.9435 35.8568 50.1608 35.9321 50.2236C36.1448 50.4011 39.1166 52.2096 39.1955 52.2096C39.247 52.2096 42.2025 49.2956 45.7633 45.734ZM77.6322 29.5966C77.6752 28.4 77.6515 27.1567 77.5794 26.8336L77.4482 26.2463L67.2626 36.452L57.0771 46.6576L57.2106 47.9869C57.2841 48.7181 57.388 49.8723 57.4415 50.5518L57.5389 51.7872L67.5464 41.7798L77.5539 31.7723L77.6322 29.5966ZM41.3828 41.3564L48.6377 34.1003L48.3004 33.6266C48.1149 33.3661 47.4928 32.722 46.918 32.1952L45.8728 31.2375L38.5627 38.5462L31.2527 45.855L31.7148 46.4385C32.2165 47.0719 33.8519 48.6125 34.0226 48.6125C34.0806 48.6125 37.3927 45.3472 41.3828 41.3564ZM36.9238 36.9009C40.7839 33.0401 43.8989 29.8111 43.846 29.7255C43.6962 29.4831 40.8724 27.8119 40.6126 27.8119C40.3174 27.8119 27.7927 40.3283 27.7927 40.6233C27.7927 40.9752 29.5788 43.9207 29.7922 43.9207C29.8544 43.9207 33.0636 40.7618 36.9238 36.9009ZM66.8843 33.5276L77.1201 23.2909L76.9143 22.4626C76.5585 21.03 75.9224 19.1973 75.7971 19.2438C75.731 19.2683 71.055 23.8587 65.406 29.4446C56.2292 38.5189 55.1435 39.6434 55.2143 40.0013C55.3357 40.615 56.4634 43.7643 56.5617 43.7643C56.6095 43.7643 61.2546 39.1578 66.8843 33.5276ZM32.4784 32.4317C35.6138 29.2955 38.1471 26.701 38.1079 26.6663C37.9419 26.5193 36.2301 25.958 35.1648 25.7012L34.0133 25.4237L29.71 29.727L25.4066 34.0304L25.6013 34.8702C25.8749 36.0502 26.5638 38.134 26.6804 38.134C26.7339 38.134 29.343 35.568 32.4784 32.4317ZM74.4201 16.0411C73.8226 14.9692 72.8059 13.4236 72.6984 13.4236C72.6438 13.4236 67.9241 18.0989 62.2103 23.8132L51.8216 34.2028L52.5265 35.2691C52.9142 35.8556 53.3945 36.6067 53.5938 36.9382L53.9562 37.5408L64.3729 27.1222L74.7895 16.7036L74.4201 16.0411ZM69.8623 10.0624L68.4546 8.65471L58.0173 19.0919L47.5801 29.5292L48.9841 30.9397L50.3881 32.3502L60.829 21.9102L71.27 11.4701L69.8623 10.0624ZM30.1023 24.9633C28.5152 24.7825 25.6096 24.9904 25.2925 25.3074C24.9611 25.6389 24.7661 28.0209 24.9196 29.8623L25.0249 31.1242L28.0538 28.0996L31.0826 25.075L30.1023 24.9633ZM56.1521 17.6726L66.6033 7.2205L65.6136 6.59144C65.0692 6.24545 64.2804 5.76782 63.8607 5.53005L63.0976 5.09773L52.7175 15.4769C47.0085 21.1855 42.3375 25.8915 42.3376 25.9348C42.3377 25.978 42.7031 26.2186 43.1496 26.4694C43.5962 26.7202 44.3467 27.1952 44.8176 27.5251C45.2884 27.8549 45.6797 28.1247 45.6872 28.1247C45.6947 28.1247 50.4039 23.4213 56.1521 17.6726ZM50.4556 14.4546L60.8405 4.06875L59.6043 3.6808C58.9243 3.46743 57.9582 3.20227 57.4575 3.09156L56.5469 2.89027L46.3143 13.122C40.6863 18.7495 36.0816 23.3963 36.0816 23.4483C36.0816 23.5003 36.5215 23.6638 37.0591 23.8117C37.5967 23.9596 38.4237 24.2455 38.8968 24.4469C39.3699 24.6484 39.8275 24.8193 39.9138 24.8268C40 24.8343 44.7438 20.1668 50.4556 14.4546ZM43.4983 12.6537L53.6511 2.50004L53.0516 2.38757C52.7218 2.32571 51.4671 2.3141 50.2632 2.36176L48.0743 2.4484L38.0895 12.4322C32.5979 17.9233 28.162 22.4352 28.232 22.4585C28.4076 22.517 31.6055 22.7583 32.5632 22.7852L33.3456 22.8073L43.4983 12.6537ZM43.6777 3.45124C43.579 3.35256 40.726 4.51089 39.3109 5.22418C33.6796 8.06259 29.0901 13.1034 26.7194 19.0538C25.7396 21.5132 25.4474 21.7535 34.8848 12.3356C39.751 7.47932 43.7079 3.48137 43.6777 3.45124Z" fill="#0B49CF"/>
</g>
<defs>
<clipPath id="clip0_52_20">
<rect width="79.9931" height="80" fill="white" transform="translate(0.003479)"/>
</clipPath>
</defs>
</svg>
